<svg width="105" height="34" viewBox="0 0 105 34" fill="none" xmlns="http://www.w3.org/2000/svg">
<path d="M5.6466 19.252H13.0386C13.4066 19.252 13.6786 19.268 13.8546 19.3C14.0466 19.316 14.2626 19.388 14.5026 19.516C14.9346 19.74 15.1506 20.364 15.1506 21.388C15.1506 22.508 14.8546 23.164 14.2626 23.356C13.9906 23.452 13.5746 23.5 13.0146 23.5H3.51059C2.39059 23.5 1.73459 23.196 1.54259 22.588C1.44659 22.332 1.39859 21.924 1.39859 21.364V8.02C1.39859 7.204 1.55059 6.652 1.85459 6.364C2.15859 6.06 2.73459 5.908 3.5826 5.908H13.0386C13.4066 5.908 13.6786 5.924 13.8546 5.956C14.0466 5.972 14.2626 6.044 14.5026 6.172C14.9346 6.396 15.1506 7.02 15.1506 8.044C15.1506 9.164 14.8546 9.82 14.2626 10.012C13.9906 10.108 13.5746 10.156 13.0146 10.156H5.6466V12.58H10.3986C10.7666 12.58 11.0386 12.596 11.2146 12.628C11.4066 12.644 11.6226 12.716 11.8626 12.844C12.2946 13.068 12.5106 13.692 12.5106 14.716C12.5106 15.836 12.2066 16.492 11.5986 16.684C11.3266 16.78 10.9106 16.828 10.3506 16.828H5.6466V19.252ZM25.8953 7.156L32.3753 20.548C32.6473 21.092 32.7833 21.5 32.7833 21.772C32.7833 22.348 32.3193 22.868 31.3913 23.332C30.8473 23.604 30.4153 23.74 30.0953 23.74C29.7913 23.74 29.5353 23.668 29.3273 23.524C29.1353 23.38 28.9913 23.228 28.8953 23.068C28.8153 22.908 28.6953 22.668 28.5353 22.348L27.2873 19.756H20.6393L19.3913 22.348C19.2313 22.668 19.1033 22.9 19.0073 23.044C18.9273 23.188 18.7833 23.34 18.5753 23.5C18.3833 23.644 18.1273 23.716 17.8073 23.716C17.5033 23.716 17.0793 23.58 16.5353 23.308C15.6073 22.86 15.1433 22.348 15.1433 21.772C15.1433 21.5 15.2793 21.092 15.5513 20.548L22.0313 7.132C22.2073 6.764 22.4713 6.468 22.8233 6.244C23.1913 6.02 23.5753 5.908 23.9753 5.908C24.8393 5.908 25.4793 6.324 25.8953 7.156ZM23.9513 12.916L22.3673 16.204H25.5593L23.9513 12.916ZM29.8103 5.884H43.1543C43.6663 5.884 44.0423 5.948 44.2823 6.076C44.5223 6.188 44.6823 6.372 44.7623 6.628C44.8423 6.884 44.8823 7.22 44.8823 7.636C44.8823 8.052 44.8423 8.388 44.7623 8.644C44.6823 8.884 44.5463 9.052 44.3543 9.148C44.0663 9.292 43.6583 9.364 43.1303 9.364H38.5463V21.436C38.5463 21.804 38.5303 22.076 38.4983 22.252C38.4823 22.428 38.4103 22.636 38.2823 22.876C38.1703 23.1 37.9623 23.26 37.6583 23.356C37.3543 23.452 36.9543 23.5 36.4583 23.5C35.9623 23.5 35.5623 23.452 35.2583 23.356C34.9703 23.26 34.7623 23.1 34.6343 22.876C34.5223 22.636 34.4503 22.428 34.4183 22.252C34.4023 22.06 34.3943 21.78 34.3943 21.412V9.364H29.7863C29.2743 9.364 28.8983 9.308 28.6583 9.196C28.4183 9.068 28.2583 8.876 28.1783 8.62C28.0983 8.364 28.0583 8.028 28.0583 7.612C28.0583 7.196 28.0983 6.868 28.1783 6.628C28.2583 6.372 28.3943 6.196 28.5863 6.1C28.8743 5.956 29.2823 5.884 29.8103 5.884ZM49.501 19.252H56.893C57.261 19.252 57.533 19.268 57.709 19.3C57.901 19.316 58.117 19.388 58.357 19.516C58.789 19.74 59.005 20.364 59.005 21.388C59.005 22.508 58.709 23.164 58.117 23.356C57.845 23.452 57.429 23.5 56.869 23.5H47.365C46.245 23.5 45.589 23.196 45.397 22.588C45.301 22.332 45.253 21.924 45.253 21.364V8.02C45.253 7.204 45.405 6.652 45.709 6.364C46.013 6.06 46.589 5.908 47.437 5.908H56.893C57.261 5.908 57.533 5.924 57.709 5.956C57.901 5.972 58.117 6.044 58.357 6.172C58.789 6.396 59.005 7.02 59.005 8.044C59.005 9.164 58.709 9.82 58.117 10.012C57.845 10.108 57.429 10.156 56.869 10.156H49.501V12.58H54.253C54.621 12.58 54.893 12.596 55.069 12.628C55.261 12.644 55.477 12.716 55.717 12.844C56.149 13.068 56.365 13.692 56.365 14.716C56.365 15.836 56.061 16.492 55.453 16.684C55.181 16.78 54.765 16.828 54.205 16.828H49.501V19.252ZM69.7497 7.156L76.2297 20.548C76.5017 21.092 76.6377 21.5 76.6377 21.772C76.6377 22.348 76.1737 22.868 75.2457 23.332C74.7017 23.604 74.2697 23.74 73.9497 23.74C73.6457 23.74 73.3897 23.668 73.1817 23.524C72.9897 23.38 72.8457 23.228 72.7497 23.068C72.6697 22.908 72.5497 22.668 72.3897 22.348L71.1417 19.756H64.4937L63.2457 22.348C63.0857 22.668 62.9577 22.9 62.8617 23.044C62.7817 23.188 62.6377 23.34 62.4297 23.5C62.2377 23.644 61.9817 23.716 61.6617 23.716C61.3577 23.716 60.9337 23.58 60.3897 23.308C59.4617 22.86 58.9977 22.348 58.9977 21.772C58.9977 21.5 59.1337 21.092 59.4057 20.548L65.8857 7.132C66.0617 6.764 66.3257 6.468 66.6777 6.244C67.0457 6.02 67.4297 5.908 67.8297 5.908C68.6937 5.908 69.3337 6.324 69.7497 7.156ZM67.8057 12.916L66.2217 16.204H69.4137L67.8057 12.916ZM76.5267 21.028C76.1107 20.516 75.9027 20.06 75.9027 19.66C75.9027 19.244 76.2467 18.7 76.9347 18.028C77.3347 17.644 77.7587 17.452 78.2067 17.452C78.6547 17.452 79.2787 17.852 80.0787 18.652C80.3027 18.924 80.6227 19.188 81.0387 19.444C81.4547 19.684 81.8387 19.804 82.1907 19.804C83.6787 19.804 84.4227 19.196 84.4227 17.98C84.4227 17.612 84.2147 17.308 83.7987 17.068C83.3987 16.812 82.8947 16.628 82.2867 16.516C81.6787 16.404 81.0227 16.228 80.3187 15.988C79.6147 15.732 78.9587 15.436 78.3507 15.1C77.7427 14.764 77.2307 14.236 76.8147 13.516C76.4147 12.78 76.2147 11.9 76.2147 10.876C76.2147 9.468 76.7347 8.244 77.7747 7.204C78.8307 6.148 80.2627 5.62 82.0707 5.62C83.0307 5.62 83.9027 5.748 84.6867 6.004C85.4867 6.244 86.0387 6.492 86.3427 6.748L86.9427 7.204C87.4387 7.668 87.6867 8.06 87.6867 8.38C87.6867 8.7 87.4947 9.14 87.1107 9.7C86.5667 10.5 86.0067 10.9 85.4307 10.9C85.0947 10.9 84.6787 10.74 84.1827 10.42C84.1347 10.388 84.0387 10.308 83.8947 10.18C83.7667 10.052 83.6467 9.948 83.5347 9.868C83.1987 9.66 82.7667 9.556 82.2387 9.556C81.7267 9.556 81.2947 9.684 80.9427 9.94C80.6067 10.18 80.4387 10.524 80.4387 10.972C80.4387 11.404 80.6387 11.756 81.0387 12.028C81.4547 12.3 81.9667 12.484 82.5747 12.58C83.1827 12.676 83.8467 12.828 84.5667 13.036C85.2867 13.228 85.9507 13.468 86.5587 13.756C87.1667 14.044 87.6707 14.548 88.0707 15.268C88.4867 15.972 88.6947 16.844 88.6947 17.884C88.6947 18.924 88.4867 19.844 88.0707 20.644C87.6547 21.428 87.1107 22.036 86.4387 22.468C85.1427 23.316 83.7587 23.74 82.2867 23.74C81.5347 23.74 80.8227 23.652 80.1507 23.476C79.4787 23.284 78.9347 23.052 78.5187 22.78C77.6707 22.268 77.0787 21.772 76.7427 21.292L76.5267 21.028ZM102.536 6.244C103.32 6.788 103.712 7.316 103.712 7.828C103.712 8.132 103.528 8.556 103.16 9.1L97.9763 16.852V21.436C97.9763 21.804 97.9603 22.084 97.9283 22.276C97.9123 22.452 97.8403 22.66 97.7123 22.9C97.5843 23.14 97.3683 23.308 97.0643 23.404C96.7603 23.5 96.3523 23.548 95.8403 23.548C95.3283 23.548 94.9203 23.5 94.6163 23.404C94.3123 23.308 94.0963 23.14 93.9683 22.9C93.8403 22.644 93.7603 22.428 93.7283 22.252C93.7123 22.06 93.7043 21.772 93.7043 21.388V16.852L88.5203 9.1C88.1523 8.556 87.9683 8.132 87.9683 7.828C87.9683 7.316 88.3203 6.828 89.0243 6.364C89.7283 5.884 90.2323 5.644 90.5363 5.644C90.8403 5.644 91.0803 5.708 91.2563 5.836C91.5283 6.012 91.8163 6.34 92.1203 6.82L95.8403 12.772L99.5603 6.82C99.8643 6.34 100.128 6.028 100.352 5.884C100.576 5.724 100.832 5.644 101.12 5.644C101.424 5.644 101.896 5.844 102.536 6.244Z" fill="#2F3137"/>
<path d="M21.25 32.5C21.25 32.5 39.0666 29.8504 50.5833 29.5255C62.8965 29.1781 82.25 32.5 82.25 32.5" stroke="#236130" stroke-opacity="0.9" stroke-width="2"/>
</svg>
