<svg width="41" height="41" viewBox="0 0 41 41" fill="none" xmlns="http://www.w3.org/2000/svg">
<circle cx="20.5" cy="20.5" r="20.5" fill="white"/>
<circle cx="20.5" cy="20.5" r="20" stroke="#236130" stroke-opacity="0.9"/>
<path d="M20.5003 31.3639L19.4059 30.3763C17.5196 28.6502 15.9626 27.1598 14.7347 25.9053C13.5068 24.6507 12.5281 23.5296 11.7985 22.542C11.0689 21.5544 10.5573 20.6602 10.2637 19.8594C9.97005 19.0586 9.82324 18.2489 9.82324 17.4303C9.82324 15.8288 10.3615 14.4897 11.4382 13.4131C12.5148 12.3365 13.8449 11.7982 15.4287 11.7982C16.443 11.7982 17.3817 12.0384 18.2448 12.5189C19.1079 12.9993 19.8597 13.6934 20.5003 14.6009C21.2477 13.64 22.0396 12.9326 22.876 12.4788C23.7123 12.0251 24.611 11.7982 25.5719 11.7982C27.1557 11.7982 28.4859 12.3365 29.5625 13.4131C30.6391 14.4897 31.1774 15.8288 31.1774 17.4303C31.1774 18.2489 31.0306 19.0586 30.737 19.8594C30.4434 20.6602 29.9317 21.5544 29.2021 22.542C28.4725 23.5296 27.4938 24.6507 26.2659 25.9053C25.0381 27.1598 23.481 28.6502 21.5947 30.3763L20.5003 31.3639Z" fill="#236130" fill-opacity="0.9"/>
</svg>
